<svg id="Layer_1" data-name="Layer 1" xmlns="http://www.w3.org/2000/svg" xmlns:xlink="http://www.w3.org/1999/xlink" viewBox="0 0 54.67 34.8"><defs><style>.cls-1{fill:#3c571c;}.cls-2{fill:#446120;}.cls-3{fill:#6e9c33;}.cls-4{fill:#6b9631;}.cls-5{fill:#6b9630;}.cls-6{fill:#5c822a;}.cls-7{fill:#89bf3f;}.cls-8{fill:#7bab38;}.cls-9{fill:#689131;}.cls-10{fill:#a5e64c;}.cls-11{fill:url(#radial-gradient);}.cls-12{fill:url(#radial-gradient-2);}.cls-13{fill:#6f9c32;}.cls-14{fill:#90cc3f;}.cls-15{fill:#6a9431;}.cls-16{fill:#658c2d;}.cls-17{fill:#8cc63f;}.cls-18{fill:#86c236;}.cls-19{fill:#60872c;}.cls-20{fill:#537526;}.cls-21{opacity:0.24;}.cls-22{opacity:0.2;}.cls-23{fill:#94d142;}.cls-24{fill:#39521a;}.cls-25{fill:url(#radial-gradient-3);}.cls-26{fill:url(#radial-gradient-4);}.cls-27{fill:#5b8029;}.cls-28{fill:url(#radial-gradient-5);}.cls-29{fill:url(#radial-gradient-6);}.cls-30{fill:#7db038;}.cls-31{fill:#c1fa73;}.cls-32{fill:#83b83c;}.cls-33{fill:url(#radial-gradient-7);}.cls-34{fill:url(#radial-gradient-8);}</style><radialGradient id="radial-gradient" cx="-12.66" cy="-41.55" r="9.23" gradientTransform="translate(28.83 31.96) scale(0.58 0.57)" gradientUnits="userSpaceOnUse"><stop offset="0" stop-color="#a9e858"/><stop offset="1" stop-color="#77a63a"/></radialGradient><radialGradient id="radial-gradient-2" cx="-13.76" cy="-41.05" r="10.3" gradientTransform="translate(28.83 31.38) scale(0.58 0.57)" gradientUnits="userSpaceOnUse"><stop offset="0.33" stop-color="#a9e858"/><stop offset="1" stop-color="#77a63a"/></radialGradient><radialGradient id="radial-gradient-3" cx="20.49" cy="-49.51" r="12.34" gradientTransform="translate(24.53 42.44) scale(0.58)" xlink:href="#radial-gradient"/><radialGradient id="radial-gradient-4" cx="19.04" cy="-48.85" r="13.77" gradientTransform="translate(24.53 41.62) scale(0.58 0.58)" xlink:href="#radial-gradient-2"/><radialGradient id="radial-gradient-5" cx="-25.41" cy="-54.89" r="15.39" gradientTransform="translate(24.53 48.66) scale(0.58 0.58)" xlink:href="#radial-gradient"/><radialGradient id="radial-gradient-6" cx="-27.46" cy="-56.94" r="16.25" gradientTransform="translate(24.53 51.04) scale(0.58 0.58)" xlink:href="#radial-gradient-2"/><radialGradient id="radial-gradient-7" cx="4.09" cy="-62.89" r="16.73" gradientTransform="translate(24.53 57.96) scale(0.58 0.58)" xlink:href="#radial-gradient"/><radialGradient id="radial-gradient-8" cx="1.89" cy="-65.09" r="17.65" gradientTransform="translate(24.53 60.52) scale(0.58 0.58)" xlink:href="#radial-gradient-2"/></defs><title>Качаны капусты</title><path class="cls-1" d="M31.76,10a2,2,0,0,1,1.46-1,3.07,3.07,0,0,1,1,0l-.43.09c-.27.08-.42.19-.44.35a2,2,0,0,0,.09.52,2.15,2.15,0,0,1-.2,1.05,4.23,4.23,0,0,1-1.14,1.54,3.56,3.56,0,0,1-1.83.93C30.82,12,31.33,10.81,31.76,10Z"/><path class="cls-2" d="M30.86,11.49a2.26,2.26,0,0,0,1.89-.35,3.3,3.3,0,0,0,.84-.69,3.48,3.48,0,0,1-.46,1.36,4.18,4.18,0,0,1-2.39,2,10.25,10.25,0,0,1-3.69.35c-1.57-.1-2-.22-1.34-.38a17.91,17.91,0,0,0,2.18-1.34Q30,11.24,30.86,11.49Z"/><path class="cls-3" d="M23.18,12.66q4.89.63,4.65,1a2.29,2.29,0,0,1-.95.58,13,13,0,0,1-3.58.23,6,6,0,0,1-2.3-.49,8.43,8.43,0,0,1-3.37-2.53l-.24-.3,1,.53a3.81,3.81,0,0,0,1.72.49c.81,0,1.34,0,1.57,0A3.29,3.29,0,0,1,23.18,12.66Z"/><path class="cls-4" d="M17,7.57l1.19,2.27a11,11,0,0,0,2.85,3.37,10.24,10.24,0,0,0,4.8,1.19,10.54,10.54,0,0,1-2.44.09,8.48,8.48,0,0,1-4.6-1.57A4.65,4.65,0,0,1,17,9.57v-2Z"/><path class="cls-5" d="M30.45,4.63c0,.17-.44.3-1.37.38s-1.48,0-1.65-.23A3,3,0,0,1,27,3.87l-.17-.55a1.8,1.8,0,0,0,.78-.64c.12-.15.26-.37.44-.64.1-.09.25-.08.46.06l.38.26c.06,0,.16.09.29.26a5.11,5.11,0,0,1,.32.47c.16.17.33.11.53-.2l.11.2a.25.25,0,0,0,.35.06l.64-.53-.35.88A3.92,3.92,0,0,0,30.45,4.63Z"/><path class="cls-6" d="M21.38,13.38a1.7,1.7,0,0,1-.82-.37A5.14,5.14,0,0,1,19,10.8C18.27,9,17.83,7.88,17.71,7.57q-.41-1.23.09-1.2a.74.74,0,0,0,.7-.29l.35-.75c.35-.37.84-.19,1.48.55Q20.89,6.53,21.38,13.38Z"/><path class="cls-7" d="M20.56,4.46l.67-1a4.62,4.62,0,0,1,2.85-1.28A7.49,7.49,0,0,1,28,2.51a3.92,3.92,0,0,1,2.35,2.26A5.17,5.17,0,0,1,30,9a4,4,0,0,1-3.57,2.74,5.8,5.8,0,0,1-4.69-2.45Q19.7,6.7,20.56,4.46Z"/><path class="cls-8" d="M28.18,6.17a3.92,3.92,0,0,0,1.31-1.28,9.74,9.74,0,0,1-.14,4.42,1.77,1.77,0,0,1-1.43,1.46,33.2,33.2,0,0,0-3.4.17c-1.32.16-2.14-.18-2.47-1a6.35,6.35,0,0,0-.32-1.63A1.88,1.88,0,0,1,21.32,7c.14-.61,1-.69,2.65-.27A5.17,5.17,0,0,0,28.18,6.17Z"/><path class="cls-9" d="M20.51,4.8a1.61,1.61,0,0,0,.17-.58l1.08.18a4.65,4.65,0,0,1,1.89.93c.31.27.45.49.43.67l.56,1.36a4,4,0,0,0,1.68,1.89c.45.22.86-.12,1.22-1,.14,1.06,0,1.73-.4,2s-2.7-.75-6.87-3q0-.56.09-1.14A7.71,7.71,0,0,1,20.51,4.8Z"/><path class="cls-10" d="M28.74,4.89a2.63,2.63,0,0,1,0,1.66,3.58,3.58,0,0,1-.38.76,5,5,0,0,0,0-2,2.05,2.05,0,0,0-.5-1,2.32,2.32,0,0,0-.46-.35l-.2-.08a8.32,8.32,0,0,0-1.75.06,2.81,2.81,0,0,0-1.13.43l-.53.38.35-.32a3.25,3.25,0,0,1,.76-.55,4.19,4.19,0,0,1,1.8-.23,2.8,2.8,0,0,0-.61-.41l-.38-.21a3.19,3.19,0,0,0-2,.62l-1.08.93.2-.32a3.1,3.1,0,0,1,.7-.7,4.48,4.48,0,0,1,2-.73,2.79,2.79,0,0,0-.79-.23,2.26,2.26,0,0,0-1.07.23,2.2,2.2,0,0,0-1.19.93L22,4.52a2.57,2.57,0,0,1,.29-.85,1.82,1.82,0,0,1,.81-.93,4,4,0,0,1,1.25-.38,3.65,3.65,0,0,0-1.13,0l-.29.06.58-.14a2.8,2.8,0,0,1,1-.09l.2,0L25.48,2a2.77,2.77,0,0,1,.46,0l-1,.21.55.26.29.17V2.62a1.62,1.62,0,0,1,.58-.23,2.89,2.89,0,0,1,1.54,0,4.21,4.21,0,0,0-1.25,0L26,2.89l.55.32a.75.75,0,0,1,.32.29l.21-.24a1.13,1.13,0,0,1,.61-.32A3.31,3.31,0,0,1,29,3c-.78-.06-1.23,0-1.37.18a.67.67,0,0,0-.17.35v.14l.46.18A1.81,1.81,0,0,1,28.74,4.89Z"/><path class="cls-11" d="M19.5,4.4l.19,0h0c.11-.18.18-.2.23-.06l0,0a2.9,2.9,0,0,1,.86.11l1.48.64a3.57,3.57,0,0,1,1.48,1.08,9,9,0,0,1,.5,1,8,8,0,0,0,1.07,1.63,5.28,5.28,0,0,0,1.69,1.33,2.1,2.1,0,0,1,1,1.72c.11.68.64,1,1.57.87A5.91,5.91,0,0,1,26.85,14a10.83,10.83,0,0,1-2.62.18A5.71,5.71,0,0,1,20,12.57a5.6,5.6,0,0,1-1.45-4.42,12.63,12.63,0,0,1,.87-3.26,4.18,4.18,0,0,1,.19-.41l0,0Zm-.1.11q0,.27-.15.27a1.44,1.44,0,0,0-.58.29c-.23.15-.32.16-.26,0a1.34,1.34,0,0,1,1-.69A.17.17,0,0,0,19.4,4.51Z"/><path class="cls-12" d="M21.61,5.36c.12-.18.23-.34.35-.5l-.55,1.37L21.29,7l.76-.21a5.29,5.29,0,0,0,1.13-.81,6.54,6.54,0,0,1-.75.81,1.75,1.75,0,0,1-.82.47l-.41,0-.14,1.6.29,0A4.8,4.8,0,0,0,22,8.59a3.61,3.61,0,0,0,.81-.47l.09-.81.26-.58,0,.55a1.64,1.64,0,0,0,.09.58l.41-.26.52-.44a3.36,3.36,0,0,1-1.51,1.31,8.17,8.17,0,0,1-1.28.58L21,9.14l0,.81a4.77,4.77,0,0,0,.38,1.6h.43a5.56,5.56,0,0,0,1.2-.2,3.19,3.19,0,0,0,1.27-.55l0-.73.14-.87.09.69c.06.35.18.58.38.67l.14-.14,1.11-.9a4.83,4.83,0,0,1-2,2,5.86,5.86,0,0,1-1.8.59l-.79,0,.15.27a5.07,5.07,0,0,0,.58.72,3.22,3.22,0,0,0,2,.9l-.9,0a2.14,2.14,0,0,1-1.11-.32,2.5,2.5,0,0,1-.76-.9l-.34-.67a4.64,4.64,0,0,1-1.75-1.74,6.26,6.26,0,0,1-.52-1.51l-.09-.7L19,9a1.92,1.92,0,0,0,.41.79l.06-.64a2.6,2.6,0,0,0,0-.56l0-.17.15.2a2.57,2.57,0,0,1,.14.61,1.83,1.83,0,0,1-.14.88l.32.4A7.15,7.15,0,0,0,21,11.58l-.17-.52a4.94,4.94,0,0,1-.18-1.19l0-.79a3.37,3.37,0,0,1-1.28-1.37,3,3,0,0,1-.2-.78V6.64l.09.49a1.1,1.1,0,0,0,.26.53l.09-.35a2.6,2.6,0,0,0,.11-.76v.81l-.06.5.47.49a1.58,1.58,0,0,0,.58.44A4.14,4.14,0,0,1,20.8,8L21,7.22a2,2,0,0,1-1-1.08,4.79,4.79,0,0,1-.14-.7v-.2l.06.41a1.68,1.68,0,0,0,.37.81c.3.37.55.54.76.5l.18-.85a2.78,2.78,0,0,1,.4-.75Z"/><path class="cls-13" d="M24.31,7.68a9.39,9.39,0,0,0,1.2,1.63,6.37,6.37,0,0,0,1.31,1,4.81,4.81,0,0,1-.76,1.43q-.28.31-7.59-1.43l.12-2,.35.11a3.12,3.12,0,0,0,1.27-.29,4,4,0,0,1,1.92-.2c.43,0,.89.09,1.4.17a1.69,1.69,0,0,0,.49,0c.08-.06.07-.22,0-.49l-.26-.9Z"/><path class="cls-14" d="M32.52,10.27A3.56,3.56,0,0,1,30,12.54,29.58,29.58,0,0,1,22.89,14l1.69-.76A6.21,6.21,0,0,0,27,9.6a12.57,12.57,0,0,0,.5-3.34c0-.72,0-1.1,0-1.14A1,1,0,0,1,28,4.83a8.18,8.18,0,0,1,1-.17,1.83,1.83,0,0,0,1-.47,2.36,2.36,0,0,0,.44-.81c.16-.45.34-.7.55-.76a3.08,3.08,0,0,0-.35.76A1.12,1.12,0,0,0,31,4.66a4.24,4.24,0,0,1,1.07,1.45,4.1,4.1,0,0,1,.56,1.81A7.93,7.93,0,0,1,32.52,10.27Z"/><path class="cls-15" d="M32.69,10.27a3.53,3.53,0,0,1-2.47,2.27A29.64,29.64,0,0,1,23.06,14l1.69-.76A6.16,6.16,0,0,0,27.19,9.6a13.19,13.19,0,0,0,.53-3.34,8.67,8.67,0,0,1,0-1.14.75.75,0,0,1,.46-.29,10.12,10.12,0,0,1,1.08-.17,1.83,1.83,0,0,0,1-.41,2.5,2.5,0,0,0,.43-.75,3.16,3.16,0,0,1,.41-.88,3.25,3.25,0,0,0-.26.76,1.22,1.22,0,0,0,.32,1.28,4.56,4.56,0,0,1,1.1,1.45,4.51,4.51,0,0,1,.55,1.81A6.7,6.7,0,0,1,32.69,10.27Z"/><path class="cls-16" d="M31.15,4.66a3.84,3.84,0,0,1,1,1.19,4.86,4.86,0,0,1,.61,1.57,3.32,3.32,0,0,1-.29.55c-.27.41-.8.55-1.57.41s-1-.46-.7-.93a2.08,2.08,0,0,0,.41-1.34,1.06,1.06,0,0,0-.67-.87.57.57,0,0,1-.29-.67,1.37,1.37,0,0,0,.73-.38,4.4,4.4,0,0,0,.35-.7,3.28,3.28,0,0,1,.4-.87,3.58,3.58,0,0,0-.26.76A1.22,1.22,0,0,0,31.15,4.66Z"/><path class="cls-17" d="M17.45,6.69q.15-.2.21,0c.09.26.47,1.36,1.13,3.32A6.91,6.91,0,0,0,21,13a8.5,8.5,0,0,0,1.54,1,6.67,6.67,0,0,1-1.19-.53,7,7,0,0,1-2.3-2,11.85,11.85,0,0,1-1.54-2.8A2.37,2.37,0,0,1,17.45,6.69Z"/><path class="cls-18" d="M32.92,8a6.22,6.22,0,0,1-.2,1.95,5.48,5.48,0,0,1-1.89,2.73A6.81,6.81,0,0,1,27,14.17a16,16,0,0,1-3.81,0l-1.05-.26.47.05a6.82,6.82,0,0,0,1.25-.11,5.18,5.18,0,0,0,2.62-1.34,5.44,5.44,0,0,0,1.48-3c.29-1.92.57-2.83.84-2.74l.47.18a1,1,0,0,0,.55.08,2,2,0,0,0,.35-.37,1,1,0,0,1,.7-.38A3.23,3.23,0,0,0,32,5.94a2,2,0,0,1,1-.18c.49,0,.76.18.82.47s.05.61,0,.67-.16,0-.29-.12c-.33-.25-.53-.24-.58,0A10.1,10.1,0,0,0,32.92,8Z"/><path class="cls-19" d="M33.13,8A6.94,6.94,0,0,1,32.9,10,5.51,5.51,0,0,1,31,12.68a6.6,6.6,0,0,1-3.78,1.49c-2.46.23-4.09.14-4.88-.26l.49.05a6.67,6.67,0,0,0,1.25-.11,5.16,5.16,0,0,0,2.59-1.34,5.37,5.37,0,0,0,1.48-3c.18-1.09.4-1.69.67-1.81a1.54,1.54,0,0,1,.7-.08c.6-.37.91-.56.93-.56A2.16,2.16,0,0,0,31,6.66a1.73,1.73,0,0,1,.88-.37c.25,0,.35-.08.32-.12s-.08-.17,0-.23c.43-.28.83-.05,1.22.7-.17-.07-.28,0-.32.17Zm.29-1.36a1.58,1.58,0,0,1,.23.14c.15.11.2,0,.16-.46A14.11,14.11,0,0,1,34,8a2.33,2.33,0,0,1-.2-.55A7.14,7.14,0,0,0,33.42,6.64Z"/><path class="cls-20" d="M33.1,6.81l0,1.19A6.94,6.94,0,0,1,32.9,10,5.51,5.51,0,0,1,31,12.68a6.6,6.6,0,0,1-3.78,1.49l-.32,0a7,7,0,0,0,3.73-1.66,3.2,3.2,0,0,0,1.22-2.1,7.74,7.74,0,0,0-.44-3.54V6.81c0-.08.13-.15.32-.2l.64-.27a1,1,0,0,1,.7,0c.27.07.36.15.26.23l-.2.14Z"/><path class="cls-22" d="M31.19,7.58a1.84,1.84,0,0,1,.38-.9,3.41,3.41,0,0,0-.21,1.08,1.34,1.34,0,0,0,.09.61c.08.06.22,0,.44-.29a2.31,2.31,0,0,0,.46-.82,3.63,3.63,0,0,1-.29.88.85.85,0,0,1-.58.52l.09,1.48a1.16,1.16,0,0,0,.72-.55,4.61,4.61,0,0,0,.5-1,5.51,5.51,0,0,1-.58,1.54c-.22.29-.43.42-.64.38l-.32,1.14-.09.23c-.06.11.1,0,.47-.26a4.68,4.68,0,0,0,.64-.58,5.42,5.42,0,0,1-.91,1,1.07,1.07,0,0,1-.46.23,3.1,3.1,0,0,1-1.31,1.08,6.19,6.19,0,0,1-1.89.67A4.6,4.6,0,0,0,29.79,13l.82-.75a2.14,2.14,0,0,1-1.31-.44,2.45,2.45,0,0,1-.55-.64l-.15-.32.26.29a2,2,0,0,0,.61.44,4,4,0,0,0,1.28.32,3.51,3.51,0,0,0,.32-.73l.18-.64a2.66,2.66,0,0,1-1.46-.55,3.29,3.29,0,0,1-.69-.87,2.65,2.65,0,0,0,1.28.9,2.91,2.91,0,0,0,.87.17,9.34,9.34,0,0,0,0-1.07V8.72a1.85,1.85,0,0,1-1.05-.26L29.65,8l.32.15a2.67,2.67,0,0,0,.67.2l.55.06A2,2,0,0,1,31.19,7.58Z"/><path class="cls-23" d="M19.26,4.77a.62.62,0,0,0-.73.21q-.15.15-.18,0c0-.1.06-.25.24-.47a1.52,1.52,0,0,1,1.48-.38,4.74,4.74,0,0,1,.55.21,1.79,1.79,0,0,0,.67.17A4.43,4.43,0,0,1,23,5.07q.72.44.81.87s0,.09,0,.32,0,.46-.09.52-.19,0-.35-.32S23.1,6,23,6a.32.32,0,0,0-.32.11,2.75,2.75,0,0,1-.18.29c-.05.12-.19.13-.4,0a1,1,0,0,1-.5-.43,2.77,2.77,0,0,1-.23-.44.73.73,0,0,0-.29-.29.92.92,0,0,0-.53-.18h-.32l-.14.06S19.8,5,19.26,4.77Z"/><path class="cls-24" d="M31.9,13.76a5.67,5.67,0,0,1-4,.7c-1.24-.33-1.8-.51-1.68-.55a10.59,10.59,0,0,1,1.68-.06,5.58,5.58,0,0,0,2.53-.64,2.58,2.58,0,0,1,1.19-.29,5.42,5.42,0,0,0,1.05-.06,10.69,10.69,0,0,0,1.19-.38A8.9,8.9,0,0,1,31.9,13.76Z"/><path class="cls-1" d="M50.23,15.77a2.59,2.59,0,0,1,2-1.34,4.16,4.16,0,0,1,1.31,0,5.4,5.4,0,0,0-.58.09c-.39.12-.6.28-.61.49a2.59,2.59,0,0,0,.08.76,2.72,2.72,0,0,1-.26,1.4,5.5,5.5,0,0,1-1.48,2.12,4.73,4.73,0,0,1-2.47,1.28l.72-1.72C49.44,17.52,49.88,16.51,50.23,15.77Z"/><path class="cls-2" d="M51.57,17.37a4.23,4.23,0,0,0,1.13-.93,4.69,4.69,0,0,1-.64,1.86,5.5,5.5,0,0,1-3.2,2.76,13.16,13.16,0,0,1-4.91.47c-2.13-.14-2.73-.31-1.8-.53a29.44,29.44,0,0,0,2.9-1.83q2.85-1.68,4-1.31A2.92,2.92,0,0,0,51.57,17.37Z"/><path class="cls-3" d="M34.61,18.76q1.55,0,2.1,0a4.39,4.39,0,0,1,2,.7c4.37.6,6.44,1,6.23,1.31a2.33,2.33,0,0,1-1.28.79,16.31,16.31,0,0,1-4.8.35,9.32,9.32,0,0,1-3-.67,10.86,10.86,0,0,1-4.48-3.46L31,17.34l1.28.73A5.21,5.21,0,0,0,34.61,18.76Z"/><path class="cls-4" d="M30.49,12.48l1.62,3.11a15.48,15.48,0,0,0,3.81,4.66,10.14,10.14,0,0,0,3.87,1.27,23.64,23.64,0,0,0,2.53.32,14,14,0,0,1-3.26.12,11.19,11.19,0,0,1-6.16-2.12,6.59,6.59,0,0,1-2.41-4.6Z"/><path class="cls-5" d="M45.84,5l.52.35c.12,0,.39.34.82,1,.19.23.42.13.7-.29l.14.29a.27.27,0,0,0,.44.06,6.24,6.24,0,0,0,.87-.73c-.15.39-.31.79-.47,1.22a5.39,5.39,0,0,0-.4,1.57c0,.25-.56.42-1.81.49s-2,0-2.23-.32a4.31,4.31,0,0,1-.59-1.22l-.26-.75a2.41,2.41,0,0,0,1-.88,9,9,0,0,0,.58-.9C45.34,4.76,45.55,4.78,45.84,5Z"/><path class="cls-6" d="M36.33,20.48a2.23,2.23,0,0,1-1.07-.55,6.6,6.6,0,0,1-2.07-3q-1.63-4.12-1.74-4.45c-.37-1.12-.34-1.67.08-1.65a1,1,0,0,0,1-.38l.44-1c.48-.5,1.15-.25,2,.76Q35.69,11,36.33,20.48Z"/><path class="cls-7" d="M35.26,8.24l.87-1.4A6.25,6.25,0,0,1,40,5a10,10,0,0,1,5.26.52,5.47,5.47,0,0,1,3.14,3.08,7.6,7.6,0,0,1-.46,5.82q-1.57,3.63-4.74,3.72c-2.31.08-4.4-1.05-6.26-3.37S34.48,10.29,35.26,8.24Z"/><path class="cls-8" d="M47.21,8.85l.2,2a13.54,13.54,0,0,1-.38,4,2.42,2.42,0,0,1-2,2,45.25,45.25,0,0,0-4.53.27c-1.77.21-2.88-.27-3.35-1.43a8.39,8.39,0,0,0-.38-2.21,2.56,2.56,0,0,1-.55-1.83c.2-.86,1.38-1,3.55-.41a6.71,6.71,0,0,0,5.61-.67A5.21,5.21,0,0,0,47.21,8.85Z"/><path class="cls-9" d="M39.15,14.26,34.88,12c0-.51.07-1,.11-1.54A9,9,0,0,1,35.2,8.7a2.82,2.82,0,0,0,.23-.78l1.42.23A5.84,5.84,0,0,1,39.38,9.4c.41.39.61.71.61,1l.73,1.86a5.33,5.33,0,0,0,2.21,2.56c.39.17.79,0,1.19-.52a3.73,3.73,0,0,0,.47-.88l0,1.17a2,2,0,0,1-.58,1.6Q43.55,16.47,39.15,14.26Z"/><path class="cls-10" d="M45.75,6.2c-.56,0-.9.11-1,.26a1.46,1.46,0,0,0-.23.47v.2l.64.23a2.48,2.48,0,0,1,1,1.46,3.3,3.3,0,0,1-.06,2.27,4.13,4.13,0,0,1-.49,1,7.25,7.25,0,0,0,0-2.79A2.8,2.8,0,0,0,45,7.89a3.19,3.19,0,0,0-.61-.47l-.29-.11a11.61,11.61,0,0,0-2.3.05A4.05,4.05,0,0,0,40.26,8l-.7.53L40,8a5.06,5.06,0,0,1,1-.73A5.36,5.36,0,0,1,43.43,7a3.25,3.25,0,0,0-.82-.56l-.52-.29A4.18,4.18,0,0,0,39.36,7L38,8.26l.26-.46a4.37,4.37,0,0,1,.91-1,6,6,0,0,1,2.7-1,3.42,3.42,0,0,0-1-.32,3.32,3.32,0,0,0-1.45.32,3,3,0,0,0-1.57,1.28c-.19.39-.37.76-.52,1.1q-.09.18-.09.06a3.28,3.28,0,0,1,.41-1.13,2.82,2.82,0,0,1,1.1-1.31,6.16,6.16,0,0,1,1.66-.52,4.22,4.22,0,0,0-1.51,0l-.38.09.75-.21a3.68,3.68,0,0,1,1.37-.11l.29,0L41.16,5a3.18,3.18,0,0,1,.67-.09l.61,0-1.34.29.73.32.41.26V5.71A1.79,1.79,0,0,1,43,5.39a3.41,3.41,0,0,1,2.07.05,5,5,0,0,0-1.69,0l-.82.59.76.46a1.35,1.35,0,0,1,.44.38L44,6.58a1.55,1.55,0,0,1,.81-.44,4.26,4.26,0,0,1,1.75.09C46.32,6.21,46,6.2,45.75,6.2Z"/><path class="cls-25" d="M43.92,16.06a2.9,2.9,0,0,1,1.4,2.38c.13.94.82,1.33,2.06,1.2a3.65,3.65,0,0,1-.81.55,11.92,11.92,0,0,1-2.94,1.08,14.35,14.35,0,0,1-3.49.23q-3.84-.15-5.55-2.15a7.84,7.84,0,0,1-2-6.08A15.69,15.69,0,0,1,33.8,8.82a4.12,4.12,0,0,1,.25-.57l0,0-.11-.09.17,0h.09c.14-.21.23-.23.29-.05v0a2.94,2.94,0,0,1,1.16.16q.34.12,2,.9a4.94,4.94,0,0,1,2,1.45A7.38,7.38,0,0,1,40.23,12a9.65,9.65,0,0,0,1.45,2.21A6.83,6.83,0,0,0,43.92,16.06ZM33.68,8.27c0,.25-.07.37-.17.37a2.11,2.11,0,0,0-.78.44c-.32.21-.43.22-.35,0a1.84,1.84,0,0,1,1.33-.95A.81.81,0,0,0,33.68,8.27Z"/><path class="cls-26" d="M38.42,12.1a1.89,1.89,0,0,1,.21-.52l.11-.23,0,.73a2.48,2.48,0,0,0,.11.81l.55-.38a5.19,5.19,0,0,0,.7-.61,4.69,4.69,0,0,1-2,1.83,12.33,12.33,0,0,1-1.69.79l-.47.12,0,1.13a7.36,7.36,0,0,0,.5,2.18H37a8.22,8.22,0,0,0,1.6-.29,4,4,0,0,0,1.72-.76l0-1,.2-1.22.12,1a1.17,1.17,0,0,0,.46.9l.21-.2c.13-.14.64-.54,1.51-1.22a6.38,6.38,0,0,1-.7,1,6.84,6.84,0,0,1-2,1.71,6.75,6.75,0,0,1-2.38.79l-1.08.06.18.35a7.29,7.29,0,0,0,.78,1,4.54,4.54,0,0,0,2.65,1.23l-1.19,0a3.14,3.14,0,0,1-1.52-.43,3,3,0,0,1-1-1.22l-.44-.91a6.41,6.41,0,0,1-2.36-2.41A7.5,7.5,0,0,1,33,14.29l-.12-1,.29,1.16a2.32,2.32,0,0,0,.55,1.08l.09-.88a3.3,3.3,0,0,0,0-.75l-.06-.26L34,14a3.05,3.05,0,0,1,.17.84A2.42,2.42,0,0,1,34,16l.38.52A10.94,10.94,0,0,0,35.9,18l-.27-.73a8.06,8.06,0,0,1-.2-1.63l-.06-1.07a4.18,4.18,0,0,1-1.69-1.86,5.17,5.17,0,0,1-.29-1.08v-.38l.12.64a1.65,1.65,0,0,0,.35.73l.14-.49.12-1-.06,1.77.61.67a1.81,1.81,0,0,0,.76.58L35.81,12a2.65,2.65,0,0,1-1.34-1.48,3.66,3.66,0,0,1-.2-1v-.3l.08.56a3.13,3.13,0,0,0,.5,1.13c.4.51.74.74,1,.7l.26-1.19a4.44,4.44,0,0,1,.55-1.05,6.05,6.05,0,0,1,.47-.67l-.32.73a8.4,8.4,0,0,0-.44,1.16l-.18,1,.35-.06a4.4,4.4,0,0,0,.7-.23,8.2,8.2,0,0,0,1.48-1.1,6.1,6.1,0,0,1-1,1.1,2.25,2.25,0,0,1-1.08.61l-.52.06-.23,2.21.4-.06a4,4,0,0,0,.9-.32,6.72,6.72,0,0,0,1.11-.61,8.78,8.78,0,0,1,.11-1.17Z"/><path class="cls-27" d="M43.6,16.2a6,6,0,0,1-1,2q-.4.46-10.15-2l.15-2.79.47.18a3.66,3.66,0,0,0,1.68-.38,5.38,5.38,0,0,1,2.59-.29,14.24,14.24,0,0,1,1.86.26,3.11,3.11,0,0,0,.67,0c.1-.08.08-.31-.06-.7l-.32-1.25.79,1.43a10.65,10.65,0,0,0,1.6,2.21A6.58,6.58,0,0,0,43.6,16.2Z"/><path class="cls-14" d="M51.22,16.2a4.76,4.76,0,0,1-3.31,3.12,38.76,38.76,0,0,1-6.32,1.51l-3.22.44,2.23-1.05a8.26,8.26,0,0,0,3.29-4.95,17.31,17.31,0,0,0,.67-4.59,8.21,8.21,0,0,1,0-1.54,1.19,1.19,0,0,1,.61-.41c.11,0,.59-.13,1.42-.26A2.33,2.33,0,0,0,48,7.86a3.46,3.46,0,0,0,.58-1.14c.24-.58.49-.93.76-1l-.47,1.07a1.54,1.54,0,0,0,.29,1.72,6.33,6.33,0,0,1,1.49,2,6.25,6.25,0,0,1,.72,2.5A9.26,9.26,0,0,1,51.22,16.2Z"/><path class="cls-15" d="M51.48,16.2a4.82,4.82,0,0,1-3.31,3.12,38.87,38.87,0,0,1-6.31,1.51l-3.23.44,2.24-1.05a8.3,8.3,0,0,0,3.25-4.95,18.38,18.38,0,0,0,.7-4.59,8,8,0,0,1,0-1.54,1.19,1.19,0,0,1,.61-.41c.12,0,.59-.13,1.43-.26A2.54,2.54,0,0,0,48.22,8a4.24,4.24,0,0,0,.56-1,5,5,0,0,1,.55-1.22L49,6.75a1.65,1.65,0,0,0,.44,1.72,5.73,5.73,0,0,1,1.45,2,6.71,6.71,0,0,1,.76,2.5A11,11,0,0,1,51.48,16.2Z"/><path class="cls-16" d="M50.7,10.13a7.55,7.55,0,0,1,.84,2.15l-.41.75c-.36.57-1.07.75-2.12.56s-1.36-.64-.93-1.28a2.58,2.58,0,0,0,.52-1.81,1.52,1.52,0,0,0-.84-1.22.73.73,0,0,1-.44-.9,1.74,1.74,0,0,0,1-.52,4.23,4.23,0,0,0,.47-1,5,5,0,0,1,.55-1.22L49,6.75a1.65,1.65,0,0,0,.44,1.72A6.5,6.5,0,0,1,50.7,10.13Z"/><path class="cls-17" d="M31.13,11.26l.11-.23s.07.08.15.29.62,1.83,1.51,4.51a9.1,9.1,0,0,0,2.94,4,11.19,11.19,0,0,0,2.06,1.43,8.78,8.78,0,0,1-1.6-.73,9.53,9.53,0,0,1-3-2.76,16.69,16.69,0,0,1-2.07-3.84A3.37,3.37,0,0,1,31.13,11.26Z"/><path class="cls-18" d="M51.48,15.74A7.56,7.56,0,0,1,49,19.49a8.78,8.78,0,0,1-5.06,2.06,23.8,23.8,0,0,1-5.09,0l-1.42-.34.64,0a7,7,0,0,0,1.68-.14,6.9,6.9,0,0,0,3.49-1.83,7.28,7.28,0,0,0,2-4.13q.61-3.93,1.14-3.78l.64.29a1,1,0,0,0,.69.11,2.35,2.35,0,0,0,.5-.52,1.31,1.31,0,0,1,.93-.55,3.89,3.89,0,0,0,1.51-.41A2.48,2.48,0,0,1,51.86,10c.66,0,1,.23,1.08.64s.06.82,0,.9-.22,0-.41-.15a.72.72,0,0,0-.47-.2.28.28,0,0,0-.29.23c0,.12,0,.66,0,1.63A8.91,8.91,0,0,1,51.48,15.74Z"/><path class="cls-19" d="M52.76,11.41q.26.19.21-.57c.15,1.45.23,2.2.23,2.25a3,3,0,0,1-.29-.75,9,9,0,0,0-.45-1.11l-.16,0a.27.27,0,0,0-.29.24c0,.11,0,.65,0,1.62a8.6,8.6,0,0,1-.29,2.68,7.72,7.72,0,0,1-2.53,3.75,8.86,8.86,0,0,1-5.06,2.07,25.19,25.19,0,0,1-5.09,0l-1.42-.35.64,0a7,7,0,0,0,5.15-2,7.33,7.33,0,0,0,2-4.13c.24-1.5.54-2.33.91-2.5a1.93,1.93,0,0,1,.93-.12,7.52,7.52,0,0,1,1.22-.73s.27-.17.76-.52a2.39,2.39,0,0,1,1.19-.55c.33,0,.46-.1.4-.18s-.09-.18,0-.26c.59-.39,1.13-.07,1.65,1a.8.8,0,0,1,.3.18Z"/><path class="cls-20" d="M52.06,11.32l-.05.11c0,.12,0,.66,0,1.63a8.6,8.6,0,0,1-.29,2.68,7.76,7.76,0,0,1-2.53,3.75,8.78,8.78,0,0,1-5.06,2.06l-.4,0a9.59,9.59,0,0,0,5-2.27,4.44,4.44,0,0,0,1.63-2.87,15.56,15.56,0,0,0-.23-3.64l-.35-1.22a.1.1,0,0,1,0-.12c0-.11.18-.22.43-.32a5.23,5.23,0,0,0,.88-.35,1.59,1.59,0,0,1,1,0c.33.1.42.21.29.32A1.36,1.36,0,0,1,52.06,11.32Z"/><path class="cls-22" d="M50.84,15.92c-.27.39-.55.57-.84.53l-.56,1.89c-.07.15.14,0,.64-.38a5.88,5.88,0,0,0,.91-.87,8.45,8.45,0,0,1-1.28,1.54,1.48,1.48,0,0,1-.59.32,4.58,4.58,0,0,1-1.77,1.45,8.63,8.63,0,0,1-2.5.93,6.69,6.69,0,0,0,2.79-1.51l1-1.05a3,3,0,0,1-1.75-.61,2.47,2.47,0,0,1-.69-.87L46,16.85l.35.41a2.33,2.33,0,0,0,.82.61,5.69,5.69,0,0,0,1.68.44,5.7,5.7,0,0,0,.44-1l.23-.84a3.47,3.47,0,0,1-2-.79,5.1,5.1,0,0,1-.7-.81l-.23-.38a3.26,3.26,0,0,0,1.72,1.25,3.2,3.2,0,0,0,1.19.23c0-.62,0-1.1,0-1.45l0-.49a2.38,2.38,0,0,1-1.39-.35L47.41,13l.46.2a4,4,0,0,0,.88.29,2.76,2.76,0,0,0,.72.06,3.21,3.21,0,0,1,0-1.17A2.79,2.79,0,0,1,50,11.18a5,5,0,0,0-.26,1.49,2.73,2.73,0,0,0,.08.84c.12.08.32-.06.61-.41A2.67,2.67,0,0,0,51,12a3.81,3.81,0,0,1-.37,1.19,1.14,1.14,0,0,1-.73.73l.09,2a1.48,1.48,0,0,0,1-.75,6.45,6.45,0,0,0,.67-1.34A7.42,7.42,0,0,1,50.84,15.92Z"/><path class="cls-23" d="M38.57,9.05c.66.39,1,.79,1.1,1.19-.05,0-.06.11,0,.44s0,.66-.09.76-.28-.08-.5-.47-.41-.65-.55-.67a.37.37,0,0,0-.41.15l-.26.4c-.08.16-.24.18-.49.06a1.85,1.85,0,0,1-.7-.61l-.32-.58A1.46,1.46,0,0,0,36,9.28a1.69,1.69,0,0,0-.7-.23h-.4l-.21.09A1.13,1.13,0,0,1,34.12,9l-.61-.35a.86.86,0,0,0-1,.27c-.14.13-.21.14-.23,0s.07-.33.32-.64a1.57,1.57,0,0,1,1.16-.52,5.2,5.2,0,0,1,.79,0,6.77,6.77,0,0,1,.75.29,2.64,2.64,0,0,0,.9.23,7.39,7.39,0,0,1,1.14.21A4.7,4.7,0,0,1,38.57,9.05Z"/><path class="cls-24" d="M50.41,21a7.41,7.41,0,0,1-5.41,1c-1.65-.44-2.4-.69-2.24-.75A12.35,12.35,0,0,1,45,21.12a12.31,12.31,0,0,0,1.68-.2,8.72,8.72,0,0,0,1.75-.7A3,3,0,0,1,50,19.84a6.52,6.52,0,0,0,1.36-.09A16.19,16.19,0,0,0,53,19.23,12.88,12.88,0,0,1,50.41,21Z"/><path class="cls-1" d="M26.56,19.72a9.15,9.15,0,0,1,1.77-2.38,8.53,8.53,0,0,1,1-.87.9.9,0,0,0-.14.17,1.55,1.55,0,0,0-.18.64,11.35,11.35,0,0,0,.12,1.63,5.81,5.81,0,0,1-.35,2.41A6.91,6.91,0,0,1,27,23.82a5.42,5.42,0,0,1-2.88,1.52C25.07,23,25.88,21.08,26.56,19.72Z"/><path class="cls-2" d="M28.3,24.14a5.2,5.2,0,0,0,1.25-1A17.38,17.38,0,0,1,28,24.78a10.62,10.62,0,0,1-3.76,2.39,15.39,15.39,0,0,1-5.84.52c-2.48-.13-3.19-.33-2.13-.58.18,0,1.49-.56,3.93-1.57s4.29-1.22,5.21-.93A3.33,3.33,0,0,0,28.3,24.14Z"/><path class="cls-3" d="M3.56,23.27l-.38-.49a7.93,7.93,0,0,0,4.21,1.65c1.19,0,2,0,2.45,0a5.15,5.15,0,0,1,2.44.85q7.71,1,7.33,1.54a2.76,2.76,0,0,1-1.51,1,19.24,19.24,0,0,1-5.64.38,10.55,10.55,0,0,1-3.61-.79A12.31,12.31,0,0,1,3.56,23.27Z"/><path class="cls-4" d="M2.54,17.05l1.92,3.66a17.36,17.36,0,0,0,4.48,5.5,12,12,0,0,0,4.56,1.51,28.61,28.61,0,0,0,3,.38,15.76,15.76,0,0,1-3.84.12,13.26,13.26,0,0,1-7.27-2.51,7.79,7.79,0,0,1-2.85-5.4V17.05Z"/><path class="cls-5" d="M21.24,8.61q.23,0,1,1.2c.23.29.5.17.81-.35l.17.35a.32.32,0,0,0,.53.08,7.37,7.37,0,0,0,1-.84l-.53,1.42a6.86,6.86,0,0,0-.46,1.84c0,.31-.67.51-2.13.61s-2.35-.05-2.64-.38a5.68,5.68,0,0,1-.7-1.46l-.29-.9a2.52,2.52,0,0,0,1.22-1c.21-.3.45-.65.7-1.08.13-.18.38-.15.73.09Z"/><path class="cls-6" d="M4.92,14.63a2.35,2.35,0,0,1,.53-1.25c.54-.58,1.31-.27,2.32.93q.56.67,1.17,6.49.32,2.91.49,5.7a3,3,0,0,1-1.28-.64,8.11,8.11,0,0,1-2.44-3.58q-1.92-4.89-2-5.23c-.44-1.32-.42-2,.09-2A1.18,1.18,0,0,0,4.92,14.63Z"/><path class="cls-7" d="M8.18,12.05a4.27,4.27,0,0,1,1-1.66,7.19,7.19,0,0,1,4.5-2.1,11.94,11.94,0,0,1,6.23.59,6.4,6.4,0,0,1,3.69,3.66c.78,2,.59,4.24-.55,6.83q-1.86,4.3-5.58,4.4-4.08.14-7.39-4T8.18,12.05Z"/><path class="cls-8" d="M22.26,12.74l.23,2.36A15,15,0,0,1,22,19.87a2.81,2.81,0,0,1-2.27,2.32,52.19,52.19,0,0,0-5.35.32c-2.09.24-3.4-.33-3.92-1.68A10.3,10.3,0,0,0,10,18.24a3.26,3.26,0,0,1-.67-2.18c.24-1,1.63-1.14,4.19-.44a8,8,0,0,0,6.63-.81A6.49,6.49,0,0,0,22.26,12.74Z"/><path class="cls-9" d="M9.4,10.33l.06-.12,1.54.64a5.1,5.1,0,0,1,2.3,2.42,8,8,0,0,1,.43,1.25l.88,2.21a6.26,6.26,0,0,0,2.61,3c.45.22.91,0,1.37-.61a3.45,3.45,0,0,0,.58-1l0,1.37c-.06,1-.28,1.59-.67,1.86s-2.33-.46-5.78-2.21q-2.6-1.28-5.06-2.67.38-1.45.78-3C9,11.5,9.32,10.45,9.4,10.33Z"/><path class="cls-10" d="M14.72,8.35l.41-.11a2.89,2.89,0,0,1,.76-.12,3.51,3.51,0,0,1,.75.06,8.63,8.63,0,0,0-1.19.23L15,8.53l.85.38.49.29,0-.12a2.28,2.28,0,0,1,.87-.41,4.45,4.45,0,0,1,2.45.06,5.46,5.46,0,0,0-2,.06,3.58,3.58,0,0,0-.61.41l-.32.26.87.55a1.43,1.43,0,0,1,.5.44l.32-.38a1.92,1.92,0,0,1,1-.49,4.76,4.76,0,0,1,2.06.11q-.46,0-1,0a1.89,1.89,0,0,0-1.22.29,1.53,1.53,0,0,0-.26.59v.2l.75.26a3.06,3.06,0,0,1,1.25,1.75A4.08,4.08,0,0,1,21,15.39a4.33,4.33,0,0,1-.59,1.22,7.87,7.87,0,0,0,0-3.28,3.59,3.59,0,0,0-.75-1.72,2.34,2.34,0,0,0-.7-.49L18.56,11a12.29,12.29,0,0,0-2.73.06,4.4,4.4,0,0,0-1.78.7,8.41,8.41,0,0,0-.84.61,6.35,6.35,0,0,1,.52-.52A5.83,5.83,0,0,1,15,11a6,6,0,0,1,2.82-.4,4.48,4.48,0,0,0-.93-.67l-.62-.32A10.19,10.19,0,0,0,15,9.72a4.5,4.5,0,0,0-2,.85l-1.69,1.51a4.46,4.46,0,0,1,1.4-1.66,7.52,7.52,0,0,1,3.17-1.19,4.75,4.75,0,0,0-1.23-.38A3.92,3.92,0,0,0,13,9.26a3.48,3.48,0,0,0-1.86,1.48c-.24.47-.45.9-.64,1.31-.06.14-.09.16-.09.09a3.84,3.84,0,0,1,.49-1.34,3.5,3.5,0,0,1,1.28-1.57,6.68,6.68,0,0,1,1.95-.61,5.79,5.79,0,0,0-1.77,0l-.44.09.9-.23a4.37,4.37,0,0,1,1.6-.15Z"/><path class="cls-28" d="M5.3,10.45q-.12.2,0-.15a3.38,3.38,0,0,1,.43-.87A2,2,0,0,1,6.9,8.87a1.84,1.84,0,0,1,1.54.56,10.79,10.79,0,0,0,2.12,1.48,5.11,5.11,0,0,1,2.5,2.79,27.8,27.8,0,0,1,1,2.77,12.37,12.37,0,0,0,1.72,2.61,8.26,8.26,0,0,0,2.65,2.18A3.48,3.48,0,0,1,20,24.08c.17,1.09,1,1.56,2.47,1.4a4.58,4.58,0,0,1-1,.67A14,14,0,0,1,18,27.4a17.26,17.26,0,0,1-4.1.29q-4.54-.21-6.58-2.56A9.38,9.38,0,0,1,5,18a18.45,18.45,0,0,1,1.39-5.24c.51-1.1.81-1.78.9-2s0-.58-.4-.88a1.07,1.07,0,0,0-.79-.26.81.81,0,0,0-.52.35Z"/><path class="cls-29" d="M5.94,16v-.44l.15.76a2,2,0,0,0,.43.87l.15-.58.14-1.19-.08,2.12.75.79a2.39,2.39,0,0,0,.9.67,6.6,6.6,0,0,1,.15-1.17l.26-1.33a3.11,3.11,0,0,1-1.54-1.75A6.07,6.07,0,0,1,7,13.65V13.3l.09.64a3.14,3.14,0,0,0,.61,1.33c.48.61.88.88,1.19.82l.32-1.4a4.62,4.62,0,0,1,.64-1.22l.52-.78-.38.84a9.21,9.21,0,0,0-.49,1.37,7.34,7.34,0,0,0-.18,1.19L9.72,16a6.1,6.1,0,0,0,.79-.26,9,9,0,0,0,1.77-1.34,8.11,8.11,0,0,1-1.19,1.34,2.51,2.51,0,0,1-1.89.78l-.26,2.59a4.41,4.41,0,0,0,1.54-.44A9.43,9.43,0,0,0,11.76,18a7.81,7.81,0,0,1,.14-1.37,2.14,2.14,0,0,1,.24-.61l.14-.29-.06.84a2.87,2.87,0,0,0,.15,1,6.35,6.35,0,0,0,.67-.46l.81-.7a5.56,5.56,0,0,1-2.41,2.12,8.84,8.84,0,0,1-2.53,1.11l0,1.33a8.28,8.28,0,0,0,.58,2.56,7.51,7.51,0,0,0,2.56-.35,4.48,4.48,0,0,0,2-.9l0-1.13a4.49,4.49,0,0,1,.11-.9l.12-.53.14,1.14A1.43,1.43,0,0,0,15,21.88l2-1.66a5.62,5.62,0,0,1-.81,1.16,8.17,8.17,0,0,1-2.36,2,8.56,8.56,0,0,1-2.82,1l-1.28.06.24.4a6.53,6.53,0,0,0,.9,1.19A5.36,5.36,0,0,0,14,27.43l-1.43.06A3.46,3.46,0,0,1,10.86,27a3.81,3.81,0,0,1-1.2-1.45l-.52-1.08a7.6,7.6,0,0,1-1-.75,8,8,0,0,1-1.74-2.1,7.41,7.41,0,0,1-.85-2.41L5.39,18l.32,1.36a3,3,0,0,0,.67,1.28l.08-1a2.77,2.77,0,0,0,0-.9l-.06-.29.21.35a3.21,3.21,0,0,1,.2,1,3.25,3.25,0,0,1-.17,1.43l.46.64a14,14,0,0,0,1.78,1.68l-.3-.84a10.31,10.31,0,0,1-.29-1.92l-.05-1.28a4.91,4.91,0,0,1-2-2.21A6.2,6.2,0,0,1,5.94,16Z"/><path class="cls-14" d="M27,21.41a5.67,5.67,0,0,1-3.92,3.69,40.47,40.47,0,0,1-7.45,1.81c-1.47.23-2.74.39-3.81.49a7,7,0,0,0,2.65-1.22,9.71,9.71,0,0,0,3.87-5.85A22,22,0,0,0,19.14,15a11.43,11.43,0,0,1,0-1.83,1.34,1.34,0,0,1,.73-.52c.15,0,.71-.13,1.66-.26a2.75,2.75,0,0,0,1.62-.73,4.28,4.28,0,0,0,.7-1.34c.25-.7.54-1.1.85-1.22l-.56,1.25a1.77,1.77,0,0,0,.38,2,7.71,7.71,0,0,1,1.75,2.36,7.85,7.85,0,0,1,.87,2.94A11.27,11.27,0,0,1,27,21.41Z"/><path class="cls-15" d="M27.29,21.41a5.62,5.62,0,0,1-3.9,3.69,41.3,41.3,0,0,1-7.45,1.81c-1.47.23-2.74.39-3.81.49a7,7,0,0,0,2.65-1.22,9.76,9.76,0,0,0,3.84-5.85A22,22,0,0,0,19.43,15a11.43,11.43,0,0,1,0-1.83,1.34,1.34,0,0,1,.73-.52c.15,0,.71-.13,1.66-.26a2.92,2.92,0,0,0,1.6-.64,3.64,3.64,0,0,0,.64-1.23,7.91,7.91,0,0,1,.64-1.42l-.41,1.25a2,2,0,0,0,.52,2,7.25,7.25,0,0,1,1.75,2.36,7.85,7.85,0,0,1,.87,2.94A11.63,11.63,0,0,1,27.29,21.41Z"/><path class="cls-16" d="M26.35,14.28a8.61,8.61,0,0,1,1,2.53,5.11,5.11,0,0,1-.46.91c-.43.65-1.26.86-2.5.61s-1.61-.73-1.11-1.49a3.16,3.16,0,0,0,.64-2.15,1.68,1.68,0,0,0-1-1.39.93.93,0,0,1-.49-1.08,2.09,2.09,0,0,0,1.13-.64,4.56,4.56,0,0,0,.56-1.11,7.91,7.91,0,0,1,.64-1.42l-.41,1.25a2,2,0,0,0,.52,2A6.26,6.26,0,0,1,26.35,14.28Z"/><path class="cls-17" d="M3.26,15.62c.06-.17.11-.27.15-.29s.08.1.17.35S4.31,17.84,5.36,21a10.7,10.7,0,0,0,3.49,4.74,13.25,13.25,0,0,0,2.41,1.66,10.15,10.15,0,0,1-1.89-.84A11.71,11.71,0,0,1,5.8,23.27a17.69,17.69,0,0,1-2.45-4.51A4,4,0,0,1,3.26,15.62Z"/><path class="cls-18" d="M27.31,20.89a9,9,0,0,1-3,4.42,10.62,10.62,0,0,1-6,2.44,28.56,28.56,0,0,1-6,0l-1.66-.41a8.15,8.15,0,0,0,2.76-.14,7.87,7.87,0,0,0,4.1-2.15,8.75,8.75,0,0,0,2.33-4.89c.49-3.08.94-4.56,1.37-4.42a6.14,6.14,0,0,1,.72.29,1.51,1.51,0,0,0,.85.15,8,8,0,0,0,.58-.64,1.52,1.52,0,0,1,1.08-.62,7.06,7.06,0,0,0,1.13-.17,1.92,1.92,0,0,0,.64-.32,2.7,2.7,0,0,1,1.51-.29c.8,0,1.23.27,1.31.76s.06,1-.06,1.07-.23,0-.46-.17a.89.89,0,0,0-.55-.23.28.28,0,0,0-.35.26c0,.13,0,.76.05,1.89A10.35,10.35,0,0,1,27.31,20.89Z"/><path class="cls-19" d="M27.6,20.89a9,9,0,0,1-3,4.42,10.58,10.58,0,0,1-6,2.44,28.56,28.56,0,0,1-6,0l-1.69-.41a8.22,8.22,0,0,0,2.77-.14,8,8,0,0,0,4.1-2.15,8.55,8.55,0,0,0,2.32-4.89c.49-3.08.94-4.56,1.37-4.42a6.73,6.73,0,0,1,.73.29,1.48,1.48,0,0,0,.84.15,3.8,3.8,0,0,0,.58-.64,1.52,1.52,0,0,1,1.08-.62,6.33,6.33,0,0,0,1.13-.17,1.83,1.83,0,0,0,.64-.32,2.46,2.46,0,0,1,1.4-.29c.7,0,1.07.27,1.13.76a5.47,5.47,0,0,1,.06,1c0,.08-.11,0-.29-.08a.84.84,0,0,0-.52-.23.32.32,0,0,0-.38.26q0,.2.06,1.89A10.63,10.63,0,0,1,27.6,20.89Z"/><path class="cls-20" d="M27.9,15.83c0,.13,0,.76.05,1.89a10.35,10.35,0,0,1-.35,3.17,9,9,0,0,1-3,4.42,10.58,10.58,0,0,1-6,2.44,3.16,3.16,0,0,1-.5,0A11,11,0,0,0,24,25.1,5.19,5.19,0,0,0,26,21.73a15.38,15.38,0,0,0-.38-4.42l-.52-1.54.7-.29a1,1,0,0,1,.66-.06,2.54,2.54,0,0,0,.76.11,1.86,1.86,0,0,1,.82.12Z"/><path class="cls-22" d="M26.75,16.54A4.8,4.8,0,0,1,26.28,18a1.38,1.38,0,0,1-.87.84l.06,1.6a4.59,4.59,0,0,0,.06.76,1.75,1.75,0,0,0,1.13-.88,6.43,6.43,0,0,0,.79-1.6,7.83,7.83,0,0,1-.93,2.48c-.31.48-.64.69-1,.64L24.89,24c-.1.17.15,0,.75-.44a6.81,6.81,0,0,0,1.08-1.06,9.74,9.74,0,0,1-1.54,1.85,1.7,1.7,0,0,1-.7.37,5.49,5.49,0,0,1-2.06,1.72,10.64,10.64,0,0,1-3,1.08,7.36,7.36,0,0,0,3.29-1.78L24,24.54a3.43,3.43,0,0,1-2.1-.73,3.62,3.62,0,0,1-.84-1l-.23-.5.4.47a3.1,3.1,0,0,0,1,.69,7.25,7.25,0,0,0,2,.53,5.45,5.45,0,0,0,.52-1.22l.26-1a4.37,4.37,0,0,1-2.29-.93,4.71,4.71,0,0,1-.79-1l-.29-.44a4.16,4.16,0,0,0,2,1.48,3.49,3.49,0,0,0,1.39.24c0-.74,0-1.3,0-1.69l0-.58a2.79,2.79,0,0,1-1.62-.41l-.91-.75L23,18a4.2,4.2,0,0,0,1,.35,4.61,4.61,0,0,0,.88,0,3,3,0,0,1,0-1.36,2.91,2.91,0,0,1,.61-1.46,6.29,6.29,0,0,0-.29,1.75,4.43,4.43,0,0,0,.08,1c.14.09.38-.07.73-.5A4.08,4.08,0,0,0,26.75,16.54Z"/><path class="cls-23" d="M5.88,9a2,2,0,0,1,1.51-.14,4.13,4.13,0,0,1,.88.29c.15.11.39.33.72.64a4.24,4.24,0,0,0,.9.58,6.11,6.11,0,0,1,1.23.67,7.56,7.56,0,0,1,1.1,1.07A3.86,3.86,0,0,1,13,13.44c.15.45.15.58,0,.41s-.13.1-.21.49-.22.7-.38.76-.27-.17-.34-.67-.25-.88-.38-1-.4.09-.67.55a10.17,10.17,0,0,1-.55,1c-.14.14-.32,0-.56-.29a4.09,4.09,0,0,1-.46-1.08,7.6,7.6,0,0,1-.06-1.22,1.83,1.83,0,0,0-.17-1,1.56,1.56,0,0,0-.7-.5l-.47-.17H7.83a1.5,1.5,0,0,1-.58-.15,2,2,0,0,1-.64-.41c-.14-.13-.37-.05-.7.24-.18.13-.4.32-.67.55s-.23-.14-.12-.7A1.84,1.84,0,0,1,5.88,9Z"/><path class="cls-30" d="M7.83,10.71a1.5,1.5,0,0,1-.58-.15,1.81,1.81,0,0,1-.64-.41c-.14-.13-.37-.05-.7.24l-.67.55c-.13.06-.18-.09-.14-.44a1.81,1.81,0,0,0,.64-.37l.52-.5.32-.06c.21,0,.33.09.35.26a.91.91,0,0,0,.4.59,1.2,1.2,0,0,0,.62.29Z"/><path class="cls-30" d="M12.13,14.75c.1,0,.22-.15.35-.47a5.58,5.58,0,0,1,.47-1,3.21,3.21,0,0,1,.14.52c0,.12,0,.14-.08.06s-.13.1-.21.49-.22.7-.38.76S12.19,15,12.13,14.75Z"/><path class="cls-30" d="M10.68,14a1.48,1.48,0,0,1,.61-.78c.25-.14.39-.05.41.26-.18-.1-.4.09-.67.55a10.17,10.17,0,0,1-.55,1c-.1.14-.27.07-.5-.2a.4.4,0,0,0,.41-.15A4.07,4.07,0,0,0,10.68,14Z"/><path class="cls-31" d="M6.58,8.9c-.08-.09,0-.1.32,0a1.78,1.78,0,0,1,.78.61,4.1,4.1,0,0,0,1.49.72,1.88,1.88,0,0,1,.46.35.71.71,0,0,1,.18.44c0,.14.12.24.32.32a1.59,1.59,0,0,1,.49.26,1.6,1.6,0,0,0,1,.47c.17,0,.37.26.58.78a1.8,1.8,0,0,0-.35-.49,1.21,1.21,0,0,0-.46-.09,1,1,0,0,1-.56-.2,2.75,2.75,0,0,0-.34-.32,1.21,1.21,0,0,0-.47-.15.61.61,0,0,1-.49-.35,4.53,4.53,0,0,0-.21-.52c-.11-.29-.65-.57-1.6-.84-.11,0-.23-.13-.35-.32A.81.81,0,0,0,7,9.2.69.69,0,0,1,6.58,8.9Z"/><path class="cls-2" d="M43.89,30a3.71,3.71,0,0,0,3.17-.52,5.36,5.36,0,0,0,1.37-1.11,15.58,15.58,0,0,1-1.72,1.81,12,12,0,0,1-4.1,2.58,16.82,16.82,0,0,1-6.31.59q-4-.24-2.3-.64c.18,0,1.59-.61,4.25-1.69S42.9,29.63,43.89,30Z"/><path class="cls-3" d="M27,29.76a5.6,5.6,0,0,1,2.62.93c5.6.75,8.26,1.32,8,1.68a3.2,3.2,0,0,1-1.66,1,20.28,20.28,0,0,1-6.13.41,10.87,10.87,0,0,1-3.9-.84,13.84,13.84,0,0,1-5.76-4.45L19.75,28l1.63.94a6.41,6.41,0,0,0,3,.87Q26.33,29.7,27,29.76Z"/><path class="cls-1" d="M47.09,22.05a10.13,10.13,0,0,1,1.08-1,1.45,1.45,0,0,0-.15.2,1.55,1.55,0,0,0-.2.7A13.19,13.19,0,0,0,48,23.77a6.4,6.4,0,0,1-.37,2.61,7.61,7.61,0,0,1-1.92,2.74,6.15,6.15,0,0,1-3.17,1.62c1-2.59,1.93-4.63,2.67-6.1A10.47,10.47,0,0,1,47.09,22.05Z"/><path class="cls-32" d="M19.52,25.13l1.08,2.53a12.5,12.5,0,0,0,3.87,4.51,9.64,9.64,0,0,0,4,1.45,13.54,13.54,0,0,0,2.35.24,11.84,11.84,0,0,1-3-.18,11.49,11.49,0,0,1-5.7-2.53,7.35,7.35,0,0,1-2.79-4.27Z"/><path class="cls-5" d="M38.72,12.13l.66.44a3.07,3.07,0,0,0,.64-.2c.35-.12.61-.08.76.11a2.43,2.43,0,0,1,.55,1l.18.38a.42.42,0,0,0,.61.09c.35-.27.71-.59,1.07-.93l-.58,1.54a6.33,6.33,0,0,0-.49,2c0,.33-.74.55-2.33.64s-2.57,0-2.88-.4a5.46,5.46,0,0,1-.75-1.57l-.32-1a2.76,2.76,0,0,0,1.33-1.08A11.17,11.17,0,0,0,37.93,12C38.08,11.82,38.35,11.86,38.72,12.13Z"/><path class="cls-6" d="M24.76,18.76c.38.49.8,2.84,1.25,7.07q.31,3.14.52,6.17a3.49,3.49,0,0,1-1.4-.7,9.07,9.07,0,0,1-2.61-3.87A22.15,22.15,0,0,1,21,21c-.13-1.93.12-2.89.76-2.85s.83.15.79.32l.61-.49C23.63,17.76,24.17,18,24.76,18.76Z"/><path class="cls-7" d="M27.29,24.73q-3.64-4.52-2.1-8.44l1.11-1.77a7.76,7.76,0,0,1,4.91-2.3,13.08,13.08,0,0,1,6.75.64,6.9,6.9,0,0,1,4,4c.84,2.15.64,4.63-.58,7.44C40,27.36,38,29,35.31,29.06Q30.9,29.21,27.29,24.73Z"/><path class="cls-9" d="M26.85,14l1.28.88A8.53,8.53,0,0,0,31.5,16a13,13,0,0,1,3.55.67v1.83a7.77,7.77,0,0,0,.41,2.74,3.26,3.26,0,0,0,1.69,1.68l0,1.52a2.52,2.52,0,0,1-.72,2c-.43.29-2.52-.5-6.29-2.38l-5.49-2.91c.27-1.07.55-2.14.84-3.23.58-2.19.91-3.34,1-3.46S26.75,14.06,26.85,14Z"/><path class="cls-10" d="M38.63,13.7c-.72,0-1.16.11-1.31.32a1.6,1.6,0,0,0-.29.61,1.29,1.29,0,0,0,0,.24l.81.29a3.37,3.37,0,0,1,1.37,1.89,4.28,4.28,0,0,1-.09,2.9,4.7,4.7,0,0,1-.64,1.31,8.58,8.58,0,0,0,0-3.57,3.67,3.67,0,0,0-.84-1.86,3.12,3.12,0,0,0-.76-.56l-.38-.17a13.13,13.13,0,0,0-3,.09,4.83,4.83,0,0,0-1.92.78l-.9.64.58-.58a5.79,5.79,0,0,1,1.28-.93,7,7,0,0,1,3.08-.41A4.44,4.44,0,0,0,34.58,14l-.64-.35a11.82,11.82,0,0,0-1.3.15,4.86,4.86,0,0,0-2.22.93l-1.8,1.63.35-.58a5.85,5.85,0,0,1,1.16-1.22,7.93,7.93,0,0,1,3.43-1.28,4.82,4.82,0,0,0-1.3-.41,4.28,4.28,0,0,0-1.84.44,3.71,3.71,0,0,0-2,1.6c-.25.5-.49,1-.7,1.42q-.09.21-.09.09a4.35,4.35,0,0,1,.53-1.45,3.49,3.49,0,0,1,1.39-1.69,7,7,0,0,1,2.13-.67,6.64,6.64,0,0,0-1.95-.06l-.47.12,1-.26a4.38,4.38,0,0,1,1.75-.15l.37.06.41-.12a3.59,3.59,0,0,1,.84-.11l.82,0-1.72.38,1.46.73V13a2.68,2.68,0,0,1,1-.4,4.66,4.66,0,0,1,2.64.06,5.81,5.81,0,0,0-2.15.08,6.27,6.27,0,0,0-.7.41l-.35.29,1,.61a1.41,1.41,0,0,1,.53.5l.34-.41a1.92,1.92,0,0,1,1-.55,5,5,0,0,1,2.24.11,5.88,5.88,0,0,0-1,0Z"/><path class="cls-33" d="M37.2,28c.6,2.11,1.78,3.08,3.52,2.91a4.81,4.81,0,0,1-1.07.73A14.29,14.29,0,0,1,35.92,33a17.71,17.71,0,0,1-4.48.29c-3.27-.13-5.66-1.05-7.15-2.76a10.18,10.18,0,0,1-2.53-7.76,21.51,21.51,0,0,1,1.54-5.7c.56-1.2.88-1.94,1-2.21s0-.65-.44-1c-.58-.45-1.05-.41-1.42.11l-.35.56q-.12.22,0-.18a6.36,6.36,0,0,1,.49-.93,2,2,0,0,1,1.23-.61,2,2,0,0,1,1.68.64A11.34,11.34,0,0,0,27.78,15a22.26,22.26,0,0,0,6.72,1.74c-.16,0-.14.86.06,2.62a7.24,7.24,0,0,0,1,3.67,5.82,5.82,0,0,1,1,2.24Z"/><path class="cls-34" d="M27.58,17l-.44.93a7.59,7.59,0,0,0-.52,1.48c-.1.49-.17.91-.21,1.28l.44-.09a2.71,2.71,0,0,0,.87-.26,9.44,9.44,0,0,0,1.92-1.45,8.4,8.4,0,0,1-1.28,1.45,2.69,2.69,0,0,1-2.06.85L26,24l.49-.09a4.6,4.6,0,0,0,1.19-.38,6.34,6.34,0,0,0,1.37-.81,11.17,11.17,0,0,1,.17-1.45,2.77,2.77,0,0,1,.24-.7l.17-.29-.06.93a3.22,3.22,0,0,0,.15,1l.73-.46.9-.79a3.49,3.49,0,0,1-.53.73,7.75,7.75,0,0,1-2.09,1.6A9.4,9.4,0,0,1,26,24.52L26,26a9.34,9.34,0,0,0,.61,2.79h.75a9.92,9.92,0,0,0,2-.35,5.38,5.38,0,0,0,2.21-1l-.06-1.25a4.74,4.74,0,0,1,.15-1l.11-.55L32,25.86A1.5,1.5,0,0,0,32.64,27l.26-.27c.17-.17.8-.68,1.89-1.54a6.82,6.82,0,0,1-.87,1.25,8.17,8.17,0,0,1-2.56,2.18,8.68,8.68,0,0,1-3.08,1l-1.37.09.23.44a7.63,7.63,0,0,0,1,1.31,5.28,5.28,0,0,0,2.12,1.19,7.6,7.6,0,0,0,1.31.35L30,33.08a3.63,3.63,0,0,1-1.89-.59,4.13,4.13,0,0,1-1.31-1.57l-.55-1.16A7.63,7.63,0,0,1,25.13,29a8.3,8.3,0,0,1-1.89-2.27A10,10,0,0,1,22.31,24l-.14-1.22.35,1.48a2.93,2.93,0,0,0,.72,1.4l.09-1.14a3.16,3.16,0,0,0,0-1l-.06-.32.2.38a2.77,2.77,0,0,1,.27,1.08,3.54,3.54,0,0,1-.24,1.54l.53.67A15.88,15.88,0,0,0,26,28.8l-.32-.93a10.65,10.65,0,0,1-.29-2.09l-.06-1.4A5.47,5.47,0,0,1,23.13,22a5.06,5.06,0,0,1-.35-1.39v-.47l.14.82a2.16,2.16,0,0,0,.47.93l.14-.61L23.71,20l-.09,2.3.82.87a2.24,2.24,0,0,0,1,.73,9.26,9.26,0,0,1,.17-1.28l.29-1.46a3.26,3.26,0,0,1-1.69-1.86A5,5,0,0,1,23.91,18v-.38l.09.7a3.43,3.43,0,0,0,.67,1.43c.5.65.93.95,1.28.9l.35-1.52A4.76,4.76,0,0,1,27,17.84,8.93,8.93,0,0,1,27.58,17Z"/><path class="cls-14" d="M42.26,14.37a3.07,3.07,0,0,1,.64-1.1,1.12,1.12,0,0,1,.29-.23l-.61,1.36A2,2,0,0,0,43,16.61a7.88,7.88,0,0,1,1.89,2.53,8.58,8.58,0,0,1,.93,3.23,12.78,12.78,0,0,1-.17,4.13,6.21,6.21,0,0,1-4.25,4,47.67,47.67,0,0,1-8.11,1.95L29.15,33A7.38,7.38,0,0,0,32,31.65a10.63,10.63,0,0,0,4.19-6.34,22.37,22.37,0,0,0,.87-5.85,14,14,0,0,1,.06-2,1.42,1.42,0,0,1,.78-.55c.18,0,.78-.13,1.81-.29a3,3,0,0,0,1.77-.78A5,5,0,0,0,42.26,14.37Z"/><path class="cls-15" d="M42.49,14.58l.7-1.55-.46,1.37a2.2,2.2,0,0,0,.58,2.21,7.88,7.88,0,0,1,1.89,2.53,9.05,9.05,0,0,1,1,3.23A13,13,0,0,1,46,26.5a6.23,6.23,0,0,1-4.25,4,47.67,47.67,0,0,1-8.11,1.95L29.47,33a7.2,7.2,0,0,0,2.88-1.33,10.7,10.7,0,0,0,4.21-6.34,22.67,22.67,0,0,0,.85-5.85,14,14,0,0,1,.06-2,1.42,1.42,0,0,1,.78-.55c.17,0,.78-.14,1.8-.29a2.9,2.9,0,0,0,1.72-.7A3.67,3.67,0,0,0,42.49,14.58Z"/><path class="cls-16" d="M43.19,13l-.46,1.37a2.2,2.2,0,0,0,.58,2.21A7.63,7.63,0,0,1,45,18.73a10,10,0,0,1,1,2.74,4.5,4.5,0,0,1-.49,1c-.47.71-1.38.94-2.73.66s-1.74-.78-1.2-1.6a3.3,3.3,0,0,0,.7-2.32,1.87,1.87,0,0,0-1.1-1.54,1,1,0,0,1-.52-1.17,2.32,2.32,0,0,0,1.22-.69,4.15,4.15,0,0,0,.61-1.23Z"/><path class="cls-17" d="M20.28,18.3c.39-.49.63-.71.72-.67s.18.41.24,1.05a55.83,55.83,0,0,0,.9,7.35,8.77,8.77,0,0,0,3.55,5.21A12.91,12.91,0,0,0,28.57,33a8.28,8.28,0,0,1-2.07-.93,12.18,12.18,0,0,1-3.9-3.55,15.45,15.45,0,0,1-2.5-5.87C19.64,20.48,19.7,19,20.28,18.3Z"/><path class="cls-18" d="M46.36,22.49A11.55,11.55,0,0,1,46,25.92a9.86,9.86,0,0,1-3.26,4.8,11.5,11.5,0,0,1-6.49,2.64,28.05,28.05,0,0,1-6.51,0L27.9,32.9l.81.06a9,9,0,0,0,2.15-.21,8.46,8.46,0,0,0,4.48-2.32,9.47,9.47,0,0,0,2.53-5.3c.52-3.35,1-5,1.48-4.82.1,0,.36.15.79.34a1.53,1.53,0,0,0,.9.15,7.62,7.62,0,0,0,.64-.7,1.83,1.83,0,0,1,1.19-.67,9.06,9.06,0,0,0,1.22-.2,2.09,2.09,0,0,0,.7-.32,2.75,2.75,0,0,1,1.66-.35c.85,0,1.32.3,1.4.85s.07,1.06-.06,1.16-.27,0-.53-.21a1.28,1.28,0,0,0-.58-.26.37.37,0,0,0-.38.29A18.14,18.14,0,0,0,46.36,22.49Z"/><path class="cls-19" d="M46.68,22.49a11.55,11.55,0,0,1-.37,3.43,9.86,9.86,0,0,1-3.26,4.8,11.48,11.48,0,0,1-6.49,2.64,28.05,28.05,0,0,1-6.51,0l-1.83-.46L29,33a8.86,8.86,0,0,0,2.15-.21,8.46,8.46,0,0,0,4.48-2.32,9.47,9.47,0,0,0,2.53-5.3c.52-3.35,1-5,1.48-4.82.1,0,.36.15.79.34a1.54,1.54,0,0,0,.9.15,7.62,7.62,0,0,0,.64-.7,1.83,1.83,0,0,1,1.19-.67,9.06,9.06,0,0,0,1.22-.2,2.09,2.09,0,0,0,.7-.32,2.45,2.45,0,0,1,1.51-.35c.76,0,1.17.3,1.23.85a7.91,7.91,0,0,1,.06,1c0,.08-.13.05-.32-.09A1.17,1.17,0,0,0,47,20.1a.37.37,0,0,0-.4.29A14.86,14.86,0,0,0,46.68,22.49Z"/><path class="cls-20" d="M46.63,20.39a14.87,14.87,0,0,0,0,2.1,11.55,11.55,0,0,1-.37,3.43,9.86,9.86,0,0,1-3.26,4.8,11.48,11.48,0,0,1-6.49,2.64l-.52.06a11.89,11.89,0,0,0,6.37-2.91,5.66,5.66,0,0,0,2.09-3.69,17.28,17.28,0,0,0-.4-4.8l-.56-1.66.76-.31A1,1,0,0,1,45,20a3.35,3.35,0,0,0,.84.11,1.94,1.94,0,0,1,.87.15Z"/><path class="cls-22" d="M44.1,20.18a6.91,6.91,0,0,0-.32,1.89,3.06,3.06,0,0,0,.12,1.08c.13.12.39-.06.75-.52a3.94,3.94,0,0,0,.76-1.4,5.48,5.48,0,0,1-.47,1.51,1.5,1.5,0,0,1-1,.93L44,25.42a5.73,5.73,0,0,0,.06.84,2,2,0,0,0,1.25-1,7.13,7.13,0,0,0,.84-1.71,9.16,9.16,0,0,1-1,2.7c-.35.51-.71.73-1.08.67l-.7,2.41c-.09.2.18,0,.82-.46a8.1,8.1,0,0,0,1.31-1.32,10.4,10.4,0,0,1-1.81,2.16,1.91,1.91,0,0,1-.75.38A6.12,6.12,0,0,1,40.7,32a12.08,12.08,0,0,1-3.2,1.19,8,8,0,0,0,3.58-1.95l1.36-1.3a3.87,3.87,0,0,1-2.26-.82,4,4,0,0,1-.91-1.1L39,27.45l.44.53a3.39,3.39,0,0,0,1,.75,7.7,7.7,0,0,0,2.18.56A5.57,5.57,0,0,0,43.26,28l.26-1.08a4.77,4.77,0,0,1-2.5-1,9.42,9.42,0,0,1-.87-1l-.29-.5A4.35,4.35,0,0,0,42,26a4.8,4.8,0,0,0,1.54.29q0-1.22,0-1.86l-.06-.64a3.18,3.18,0,0,1-1.77-.44,3.52,3.52,0,0,1-.73-.58l-.23-.23.58.29a4,4,0,0,0,1.1.35,4.25,4.25,0,0,0,1,.09,4.06,4.06,0,0,1,0-1.49A3.47,3.47,0,0,1,44.1,20.18Z"/><path class="cls-23" d="M27.37,14.66c.33.18.86.41,1.57.7a35,35,0,0,0,5.56,1.43,1.22,1.22,0,0,0-.61.43,5.11,5.11,0,0,0-1,2.27c-.14.68-.36,1-.67,1.08l-.41-.18a1,1,0,0,1-.64-1.19l.26-.84-.55.75-.49.7a2.51,2.51,0,0,1-1.34.41c-.6.08-1-.5-1.28-1.72a9.9,9.9,0,0,0-.41-2.18,1.38,1.38,0,0,0-1-.44,5.52,5.52,0,0,0-1.42,0q-.55.06-.87-.72l-.21-.82a1.51,1.51,0,0,0-.93.59,1.11,1.11,0,0,1-.61.4l-.17,0a1.52,1.52,0,0,1-.12-.9,3.09,3.09,0,0,1,.26-.93,1.53,1.53,0,0,1,1-.67,2.55,2.55,0,0,1,2.65.9A5.14,5.14,0,0,0,27.37,14.66Z"/><path class="cls-30" d="M24,13.85l-.09.46c-.23,0-.53.2-.9.59a1.08,1.08,0,0,1-.61.4l-.17,0-.12-.4c.16.06.38,0,.67-.26A2.74,2.74,0,0,1,24,13.85Z"/><path class="cls-30" d="M33,17.86c.44-.42.7-.67.78-.73.29-.23.49-.33.61-.29a1.84,1.84,0,0,0-.7.64,4.91,4.91,0,0,0-.75,2c-.14.68-.36,1-.67,1.08l-.41-.18a1.05,1.05,0,0,1-.67-1.05c.08.61.37.85.88.73.19-.06.32-.36.4-.9A2.32,2.32,0,0,1,33,17.86Z"/><path class="cls-30" d="M26.91,15.68c.35.19.51.41.49.64a1.38,1.38,0,0,0-1-.44,5.13,5.13,0,0,0-1.42,0,.66.66,0,0,1-.55-.24,1.86,1.86,0,0,0,.64-.08,3.31,3.31,0,0,1,.81-.12A2.09,2.09,0,0,1,26.91,15.68Z"/><path class="cls-30" d="M30.43,19a3.9,3.9,0,0,1,.43-.64,4.47,4.47,0,0,1,1-.76c-.06.08-.12.19-.2.32a4.69,4.69,0,0,0-.32.7l-.38.52a3.42,3.42,0,0,1-.46.67,2.31,2.31,0,0,1-1.22.44,1.73,1.73,0,0,0,.69-.47A7.67,7.67,0,0,0,30.43,19Z"/><path class="cls-31" d="M27.34,15a7.62,7.62,0,0,1,.59.53,1.1,1.1,0,0,0,.52.34,4.11,4.11,0,0,0,.76,0,1.45,1.45,0,0,1,.81.18,2.29,2.29,0,0,1,.47.38,3,3,0,0,0,.46.35,1.12,1.12,0,0,0,.61.14,3.06,3.06,0,0,1,.5.06,1.24,1.24,0,0,1,.47.45.91.91,0,0,0-.39-.3A2.49,2.49,0,0,0,31.06,17a1.37,1.37,0,0,1-.61-.23,2.29,2.29,0,0,1-.55-.52c-.11-.18-.36-.25-.73-.21l-.9.06a1.36,1.36,0,0,1-.78-.44,7.14,7.14,0,0,0-.55-.58,3.12,3.12,0,0,0-.73-.38,2.87,2.87,0,0,0-.87-.2.82.82,0,0,1-.59-.35l-.4-.55a1.14,1.14,0,0,0-1.11-.32c-.43.15-.59.18-.49.09a.93.93,0,0,1,.64-.35,1.36,1.36,0,0,1,.66.11,1.7,1.7,0,0,1,.88.79,1.2,1.2,0,0,0,.32.32,4.39,4.39,0,0,0,.49.08A4,4,0,0,1,27.34,15Z"/></svg>